<?xml version="1.0" standalone="no" ?>
<!DOCTYPE svg PUBLIC "-//W3C//DTD SVG 1.1//EN" "http://www.w3.org/Graphics/SVG/1.1/DTD/svg11.dtd">
<svg width="976px" height="554px" viewBox="0 0 488 277" style="background-color: #ffffff00" xmlns="http://www.w3.org/2000/svg" xmlns:xlink="http://www.w3.org/1999/xlink" version="1.1" >
<path stroke="none" fill="#000000" transform="matrix(0.05 0 0 0.05 -28 -17)" d="M 902.635,3070.14 L 878.588,3084.02 L 878.588,2782.17 L 902.635,2796.05 L 902.635,3070.14 Z " />
<path stroke="none" fill="#000000" transform="matrix(0.05 0 0 0.05 -28 -17)" d="M 1140,3207.18 L 1140,3234.95 L 878.588,3084.02 L 902.635,3070.14 L 1140,3207.18 Z " />
<path stroke="none" fill="#000000" transform="matrix(0.05 0 0 0.05 -28 -17)" d="M 1377.36,3070.14 L 1389.39,3077.08 L 1388.75,3091.34 L 1140,3234.95 L 1140,3207.18 L 1377.36,3070.14 Z " />
<path stroke="none" fill="#000000" transform="matrix(0.05 0 0 0.05 -28 -17)" d="M 1377.36,2796.05 L 1401.41,2782.17 L 1401.41,3069.4 L 1389.39,3077.08 L 1377.36,3070.14 L 1377.36,2796.05 Z " />
<path stroke="none" fill="#000000" transform="matrix(0.05 0 0 0.05 -28 -17)" d="M 1140,2659.01 L 1140,2645.13 L 1152.68,2638.56 L 1401.41,2782.17 L 1377.36,2796.05 L 1140,2659.01 Z " />
<path stroke="none" fill="#000000" transform="matrix(0.05 0 0 0.05 -28 -17)" d="M 902.635,2796.05 L 878.588,2782.17 L 1127.32,2638.56 L 1140,2645.13 L 1140,2659.01 L 902.635,2796.05 Z " />
<path stroke="none" fill="#000000" transform="matrix(0.05 0 0 0.05 -28 -17)" d="M 1170,3458.87 L 1110,3458.87 L 1112.3,3434.82 L 1167.7,3434.82 L 1170,3458.87 Z " />
<path stroke="none" fill="#000000" transform="matrix(0.05 0 0 0.05 -28 -17)" d="M 1164.78,3404.34 L 1115.22,3404.34 L 1117.53,3380.29 L 1162.47,3380.29 L 1164.78,3404.34 Z " />
<path stroke="none" fill="#000000" transform="matrix(0.05 0 0 0.05 -28 -17)" d="M 1159.55,3349.81 L 1120.45,3349.81 L 1122.75,3325.76 L 1157.25,3325.76 L 1159.55,3349.81 Z " />
<path stroke="none" fill="#000000" transform="matrix(0.05 0 0 0.05 -28 -17)" d="M 1154.33,3295.28 L 1125.67,3295.28 L 1127.98,3271.23 L 1152.02,3271.23 L 1154.33,3295.28 Z " />
<text x="0" y="0" stroke="none" fill="#000000" transform="matrix(0.05 0 0 0.05 38.3053 169.232)" font-style="normal" font-weight="normal" font-size="200px" font-family="Arial" >
CH</text>
<text x="0" y="0" stroke="none" fill="#000000" transform="matrix(0.05 0 0 0.05 52.7487 171.352)" font-style="normal" font-weight="normal" font-size="150px" font-family="Arial" >
3</text>
<path stroke="none" fill="#000000" transform="matrix(0.05 0 0 0.05 -28 -17)" d="M 1309.18,3592.83 L 1297.16,3613.65 L 1152.02,3529.86 L 1140,3509.03 L 1140,3495.15 L 1309.18,3592.83 Z " />
<text x="0" y="0" stroke="none" fill="#000000" transform="matrix(0.05 0 0 0.05 1.08014 169.232)" font-style="normal" font-weight="normal" font-size="200px" font-family="Arial" >
H</text>
<text x="0" y="0" stroke="none" fill="#000000" transform="matrix(0.05 0 0 0.05 8.30182 171.352)" font-style="normal" font-weight="normal" font-size="150px" font-family="Arial" >
3</text>
<text x="0" y="0" stroke="none" fill="#000000" transform="matrix(0.05 0 0 0.05 12.473 169.232)" font-style="normal" font-weight="normal" font-size="200px" font-family="Arial" >
C</text>
<path stroke="none" fill="#000000" transform="matrix(0.05 0 0 0.05 -28 -17)" d="M 986.586,3611.49 L 974.562,3590.67 L 1140,3495.15 L 1140,3509.03 L 1127.98,3529.86 L 986.586,3611.49 Z " />
<text x="0" y="0" stroke="none" fill="#000000" transform="matrix(0.05 0 0 0.05 50.516 147.635)" font-style="normal" font-weight="normal" font-size="200px" font-family="Arial" >
OH</text>
<path stroke="none" fill="#000000" transform="matrix(0.05 0 0 0.05 -28 -17)" d="M 1563.46,3142.94 L 1533.46,3194.9 L 1388.75,3091.34 L 1389.39,3077.08 L 1401.41,3069.4 L 1563.46,3142.94 Z " />
<text x="0" y="0" stroke="none" fill="#000000" transform="matrix(0.05 0 0 0.05 25.8359 104.439)" font-style="normal" font-weight="normal" font-size="200px" font-family="Arial" >
CH</text>
<text x="0" y="0" stroke="none" fill="#000000" transform="matrix(0.05 0 0 0.05 40.2793 106.559)" font-style="normal" font-weight="normal" font-size="150px" font-family="Arial" >
3</text>
<path stroke="none" fill="#000000" transform="matrix(0.05 0 0 0.05 -28 -17)" d="M 1110,2464.39 L 1170,2464.39 L 1152.68,2638.56 L 1140,2645.13 L 1127.32,2638.56 L 1110,2464.39 Z " />
<path stroke="none" fill="#000000" transform="matrix(0.05 0 0 0.05 -28 -17)" d="M 4363.95,1490.14 L 4339.9,1504.02 L 4339.9,1202.17 L 4363.95,1216.05 L 4363.95,1490.14 Z " />
<path stroke="none" fill="#000000" transform="matrix(0.05 0 0 0.05 -28 -17)" d="M 4601.32,1627.18 L 4601.32,1654.95 L 4339.9,1504.02 L 4363.95,1490.14 L 4601.32,1627.18 Z " />
<path stroke="none" fill="#000000" transform="matrix(0.05 0 0 0.05 -28 -17)" d="M 4838.68,1490.14 L 4850.7,1497.08 L 4850.7,1510.96 L 4601.32,1654.95 L 4601.32,1627.18 L 4838.68,1490.14 Z " />
<path stroke="none" fill="#000000" transform="matrix(0.05 0 0 0.05 -28 -17)" d="M 4838.68,1216.05 L 4862.73,1202.17 L 4862.73,1490.14 L 4850.7,1497.08 L 4838.68,1490.14 L 4838.68,1216.05 Z " />
<path stroke="none" fill="#000000" transform="matrix(0.05 0 0 0.05 -28 -17)" d="M 4601.32,1079.01 L 4601.32,1065.13 L 4613.99,1058.56 L 4862.73,1202.17 L 4838.68,1216.05 L 4601.32,1079.01 Z " />
<path stroke="none" fill="#000000" transform="matrix(0.05 0 0 0.05 -28 -17)" d="M 4363.95,1216.05 L 4339.9,1202.17 L 4588.64,1058.56 L 4601.32,1065.13 L 4601.32,1079.01 L 4363.95,1216.05 Z " />
<path stroke="none" fill="#000000" transform="matrix(0.05 0 0 0.05 -28 -17)" d="M 4631.32,1878.87 L 4571.32,1878.87 L 4573.62,1854.82 L 4629.01,1854.82 L 4631.32,1878.87 Z " />
<path stroke="none" fill="#000000" transform="matrix(0.05 0 0 0.05 -28 -17)" d="M 4626.09,1824.34 L 4576.54,1824.34 L 4578.84,1800.29 L 4623.79,1800.29 L 4626.09,1824.34 Z " />
<path stroke="none" fill="#000000" transform="matrix(0.05 0 0 0.05 -28 -17)" d="M 4620.87,1769.81 L 4581.76,1769.81 L 4584.07,1745.76 L 4618.56,1745.76 L 4620.87,1769.81 Z " />
<path stroke="none" fill="#000000" transform="matrix(0.05 0 0 0.05 -28 -17)" d="M 4615.64,1715.28 L 4586.99,1715.28 L 4589.29,1691.23 L 4613.34,1691.23 L 4615.64,1715.28 Z " />
<text x="0" y="0" stroke="none" fill="#000000" transform="matrix(0.05 0 0 0.05 211.371 90.2325)" font-style="normal" font-weight="normal" font-size="200px" font-family="Arial" >
CH</text>
<text x="0" y="0" stroke="none" fill="#000000" transform="matrix(0.05 0 0 0.05 225.815 92.3516)" font-style="normal" font-weight="normal" font-size="150px" font-family="Arial" >
3</text>
<path stroke="none" fill="#000000" transform="matrix(0.05 0 0 0.05 -28 -17)" d="M 4770.5,2012.83 L 4758.48,2033.65 L 4601.32,1942.92 L 4601.32,1915.15 L 4770.5,2012.83 Z " />
<text x="0" y="0" stroke="none" fill="#000000" transform="matrix(0.05 0 0 0.05 174.146 90.2325)" font-style="normal" font-weight="normal" font-size="200px" font-family="Arial" >
H</text>
<text x="0" y="0" stroke="none" fill="#000000" transform="matrix(0.05 0 0 0.05 181.368 92.3516)" font-style="normal" font-weight="normal" font-size="150px" font-family="Arial" >
3</text>
<text x="0" y="0" stroke="none" fill="#000000" transform="matrix(0.05 0 0 0.05 185.539 90.2325)" font-style="normal" font-weight="normal" font-size="200px" font-family="Arial" >
C</text>
<path stroke="none" fill="#000000" transform="matrix(0.05 0 0 0.05 -28 -17)" d="M 4447.9,2031.49 L 4435.88,2010.67 L 4601.32,1915.15 L 4601.32,1942.92 L 4447.9,2031.49 Z " />
<text x="0" y="0" stroke="none" fill="#000000" transform="matrix(0.05 0 0 0.05 223.582 68.6348)" font-style="normal" font-weight="normal" font-size="200px" font-family="Arial" >
OH</text>
<path stroke="none" fill="#000000" transform="matrix(0.05 0 0 0.05 -28 -17)" d="M 5016.54,1578.94 L 5004.52,1599.77 L 4850.7,1510.96 L 4850.7,1497.08 L 4862.73,1490.14 L 5016.54,1578.94 Z " />
<text x="0" y="0" stroke="none" fill="#000000" transform="matrix(0.05 0 0 0.05 198.902 25.4395)" font-style="normal" font-weight="normal" font-size="200px" font-family="Arial" >
CH</text>
<text x="0" y="0" stroke="none" fill="#000000" transform="matrix(0.05 0 0 0.05 213.345 27.5586)" font-style="normal" font-weight="normal" font-size="150px" font-family="Arial" >
3</text>
<path stroke="none" fill="#000000" transform="matrix(0.05 0 0 0.05 -28 -17)" d="M 4571.32,884.387 L 4631.32,884.387 L 4613.99,1058.56 L 4601.32,1065.13 L 4588.64,1058.56 L 4571.32,884.387 Z " />
<path stroke="none" fill="#000000" transform="matrix(0.05 0 0 0.05 -28 -17)" d="M 4363.95,4895.67 L 4339.9,4909.56 L 4339.9,4607.7 L 4363.95,4621.59 L 4363.95,4895.67 Z " />
<path stroke="none" fill="#000000" transform="matrix(0.05 0 0 0.05 -28 -17)" d="M 4601.32,5032.72 L 4601.32,5060.48 L 4339.9,4909.56 L 4363.95,4895.67 L 4601.32,5032.72 Z " />
<path stroke="none" fill="#000000" transform="matrix(0.05 0 0 0.05 -28 -17)" d="M 4838.68,4895.67 L 4850.7,4902.62 L 4850.06,4916.87 L 4601.32,5060.48 L 4601.32,5032.72 L 4838.68,4895.67 Z " />
<path stroke="none" fill="#000000" transform="matrix(0.05 0 0 0.05 -28 -17)" d="M 4838.68,4621.59 L 4862.73,4607.7 L 4862.73,4894.93 L 4850.7,4902.62 L 4838.68,4895.67 L 4838.68,4621.59 Z " />
<path stroke="none" fill="#000000" transform="matrix(0.05 0 0 0.05 -28 -17)" d="M 4601.32,4484.55 L 4601.32,4470.66 L 4613.99,4464.1 L 4862.73,4607.7 L 4838.68,4621.59 L 4601.32,4484.55 Z " />
<path stroke="none" fill="#000000" transform="matrix(0.05 0 0 0.05 -28 -17)" d="M 4363.95,4621.59 L 4339.9,4607.7 L 4588.64,4464.1 L 4601.32,4470.66 L 4601.32,4484.55 L 4363.95,4621.59 Z " />
<path stroke="none" fill="#000000" transform="matrix(0.05 0 0 0.05 -28 -17)" d="M 4631.32,5284.4 L 4571.32,5284.4 L 4573.62,5260.35 L 4629.01,5260.35 L 4631.32,5284.4 Z " />
<path stroke="none" fill="#000000" transform="matrix(0.05 0 0 0.05 -28 -17)" d="M 4626.09,5229.87 L 4576.54,5229.87 L 4578.84,5205.82 L 4623.79,5205.82 L 4626.09,5229.87 Z " />
<path stroke="none" fill="#000000" transform="matrix(0.05 0 0 0.05 -28 -17)" d="M 4620.87,5175.34 L 4581.76,5175.34 L 4584.07,5151.3 L 4618.56,5151.3 L 4620.87,5175.34 Z " />
<path stroke="none" fill="#000000" transform="matrix(0.05 0 0 0.05 -28 -17)" d="M 4615.64,5120.82 L 4586.99,5120.82 L 4589.29,5096.77 L 4613.34,5096.77 L 4615.64,5120.82 Z " />
<text x="0" y="0" stroke="none" fill="#000000" transform="matrix(0.05 0 0 0.05 211.371 260.509)" font-style="normal" font-weight="normal" font-size="200px" font-family="Arial" >
CH</text>
<text x="0" y="0" stroke="none" fill="#000000" transform="matrix(0.05 0 0 0.05 225.815 262.628)" font-style="normal" font-weight="normal" font-size="150px" font-family="Arial" >
3</text>
<path stroke="none" fill="#000000" transform="matrix(0.05 0 0 0.05 -28 -17)" d="M 4770.5,5418.36 L 4758.48,5439.19 L 4601.32,5348.45 L 4601.32,5320.68 L 4770.5,5418.36 Z " />
<text x="0" y="0" stroke="none" fill="#000000" transform="matrix(0.05 0 0 0.05 174.146 260.509)" font-style="normal" font-weight="normal" font-size="200px" font-family="Arial" >
H</text>
<text x="0" y="0" stroke="none" fill="#000000" transform="matrix(0.05 0 0 0.05 181.368 262.628)" font-style="normal" font-weight="normal" font-size="150px" font-family="Arial" >
3</text>
<text x="0" y="0" stroke="none" fill="#000000" transform="matrix(0.05 0 0 0.05 185.539 260.509)" font-style="normal" font-weight="normal" font-size="200px" font-family="Arial" >
C</text>
<path stroke="none" fill="#000000" transform="matrix(0.05 0 0 0.05 -28 -17)" d="M 4447.9,5437.03 L 4435.88,5416.2 L 4601.32,5320.68 L 4601.32,5348.45 L 4447.9,5437.03 Z " />
<text x="0" y="0" stroke="none" fill="#000000" transform="matrix(0.05 0 0 0.05 223.582 238.912)" font-style="normal" font-weight="normal" font-size="200px" font-family="Arial" >
OH</text>
<path stroke="none" fill="#000000" transform="matrix(0.05 0 0 0.05 -28 -17)" d="M 5025.53,4968.91 L 4995.53,5020.87 L 4850.06,4916.87 L 4850.7,4902.62 L 4862.73,4894.93 L 5025.53,4968.91 Z " />
<text x="0" y="0" stroke="none" fill="#000000" transform="matrix(0.05 0 0 0.05 198.902 195.716)" font-style="normal" font-weight="normal" font-size="200px" font-family="Arial" >
CH</text>
<text x="0" y="0" stroke="none" fill="#000000" transform="matrix(0.05 0 0 0.05 213.345 197.835)" font-style="normal" font-weight="normal" font-size="150px" font-family="Arial" >
3</text>
<path stroke="none" fill="#000000" transform="matrix(0.05 0 0 0.05 -28 -17)" d="M 4571.32,4289.92 L 4631.32,4289.92 L 4613.99,4464.1 L 4601.32,4470.66 L 4588.64,4464.1 L 4571.32,4289.92 Z " />
<path stroke="none" fill="#000000" transform="matrix(0.05 0 0 0.05 -28 -17)" d="M 6435.58,1455.1 L 5755,1455.1 L 5755,1431.1 L 6435.58,1431.1 Z " />
<path stroke="none" fill="#000000" transform="matrix(0.05 0 0 0.05 -28 -17)" d="M 6645,1443.1 C 6645,1443.1 6404.52,1504.22 6404.52,1504.22 C 6404.52,1504.22 6434.58,1469.84 6434.58,1443.1 C 6434.58,1415.92 6404.52,1380.98 6404.52,1380.98 C 6404.52,1380.98 6645,1443.1 6645,1443.1 C 6645,1443.1 6645,1443.1 6645,1443.1 " />
<path stroke="#000000" stroke-width="1" fill="none" transform="matrix(0.05 0 0 0.05 -28 -17)" d="M 6645,1443.1 C 6645,1443.1 6404.52,1504.22 6404.52,1504.22 C 6404.52,1504.22 6434.58,1469.84 6434.58,1443.1 C 6434.58,1415.92 6404.52,1380.98 6404.52,1380.98 C 6404.52,1380.98 6645,1443.1 6645,1443.1 C 6645,1443.1 6645,1443.1 6645,1443.1 " />
<path stroke="none" fill="#000000" transform="matrix(0.05 0 0 0.05 -28 -17)" d="M 6805.58,1295.1 L 6105,1295.1 L 6105,1271.1 L 6805.58,1271.1 Z " />
<path stroke="none" fill="#000000" transform="matrix(0.05 0 0 0.05 -28 -17)" d="M 7015,1283.1 C 7015,1283.1 6774.52,1344.22 6774.52,1344.22 C 6774.52,1344.22 6804.58,1309.84 6804.58,1283.1 C 6804.58,1255.92 6774.52,1220.98 6774.52,1220.98 C 6774.52,1220.98 7015,1283.1 7015,1283.1 C 7015,1283.1 7015,1283.1 7015,1283.1 " />
<path stroke="#000000" stroke-width="1" fill="none" transform="matrix(0.05 0 0 0.05 -28 -17)" d="M 7015,1283.1 C 7015,1283.1 6774.52,1344.22 6774.52,1344.22 C 6774.52,1344.22 6804.58,1309.84 6804.58,1283.1 C 6804.58,1255.92 6774.52,1220.98 6774.52,1220.98 C 6774.52,1220.98 7015,1283.1 7015,1283.1 C 7015,1283.1 7015,1283.1 7015,1283.1 " />
<path stroke="none" fill="#000000" transform="matrix(0.05 0 0 0.05 -28 -17)" d="M 6435.58,4895.1 L 5755,4895.1 L 5755,4871.1 L 6435.58,4871.1 Z " />
<path stroke="none" fill="#000000" transform="matrix(0.05 0 0 0.05 -28 -17)" d="M 6645,4883.1 C 6645,4883.1 6404.52,4944.22 6404.52,4944.22 C 6404.52,4944.22 6434.58,4909.84 6434.58,4883.1 C 6434.58,4855.92 6404.52,4820.98 6404.52,4820.98 C 6404.52,4820.98 6645,4883.1 6645,4883.1 C 6645,4883.1 6645,4883.1 6645,4883.1 " />
<path stroke="#000000" stroke-width="1" fill="none" transform="matrix(0.05 0 0 0.05 -28 -17)" d="M 6645,4883.1 C 6645,4883.1 6404.52,4944.22 6404.52,4944.22 C 6404.52,4944.22 6434.58,4909.84 6434.58,4883.1 C 6434.58,4855.92 6404.52,4820.98 6404.52,4820.98 C 6404.52,4820.98 6645,4883.1 6645,4883.1 C 6645,4883.1 6645,4883.1 6645,4883.1 " />
<path stroke="none" fill="#000000" transform="matrix(0.05 0 0 0.05 -28 -17)" d="M 6805.58,4735.1 L 6105,4735.1 L 6105,4711.1 L 6805.58,4711.1 Z " />
<path stroke="none" fill="#000000" transform="matrix(0.05 0 0 0.05 -28 -17)" d="M 7015,4723.1 C 7015,4723.1 6774.52,4784.22 6774.52,4784.22 C 6774.52,4784.22 6804.58,4749.84 6804.58,4723.1 C 6804.58,4695.92 6774.52,4660.98 6774.52,4660.98 C 6774.52,4660.98 7015,4723.1 7015,4723.1 C 7015,4723.1 7015,4723.1 7015,4723.1 " />
<path stroke="#000000" stroke-width="1" fill="none" transform="matrix(0.05 0 0 0.05 -28 -17)" d="M 7015,4723.1 C 7015,4723.1 6774.52,4784.22 6774.52,4784.22 C 6774.52,4784.22 6804.58,4749.84 6804.58,4723.1 C 6804.58,4695.92 6774.52,4660.98 6774.52,4660.98 C 6774.52,4660.98 7015,4723.1 7015,4723.1 C 7015,4723.1 7015,4723.1 7015,4723.1 " />
<path stroke="none" fill="#000000" transform="matrix(0.05 0 0 0.05 -28 -17)" d="M 7518.11,1490.14 L 7494.06,1504.02 L 7494.06,1202.17 L 7518.11,1216.05 L 7518.11,1490.14 Z " />
<path stroke="none" fill="#000000" transform="matrix(0.05 0 0 0.05 -28 -17)" d="M 7755.47,1627.18 L 7755.47,1654.95 L 7494.06,1504.02 L 7518.11,1490.14 L 7755.47,1627.18 Z " />
<path stroke="none" fill="#000000" transform="matrix(0.05 0 0 0.05 -28 -17)" d="M 7992.84,1490.14 L 8004.86,1497.08 L 8004.86,1510.96 L 7755.47,1654.95 L 7755.47,1627.18 L 7992.84,1490.14 Z " />
<path stroke="none" fill="#000000" transform="matrix(0.05 0 0 0.05 -28 -17)" d="M 7992.84,1216.05 L 8016.88,1202.17 L 8016.88,1476.25 L 8004.86,1497.08 L 7992.84,1490.14 L 7992.84,1216.05 Z " />
<path stroke="none" fill="#000000" transform="matrix(0.05 0 0 0.05 -28 -17)" d="M 7755.47,1079.01 L 7755.47,1065.13 L 7768.15,1058.56 L 8016.88,1202.17 L 7992.84,1216.05 L 7755.47,1079.01 Z " />
<path stroke="none" fill="#000000" transform="matrix(0.05 0 0 0.05 -28 -17)" d="M 7518.11,1216.05 L 7494.06,1202.17 L 7742.79,1058.56 L 7755.47,1065.13 L 7755.47,1079.01 L 7518.11,1216.05 Z " />
<path stroke="none" fill="#000000" transform="matrix(0.05 0 0 0.05 -28 -17)" d="M 7785.47,1878.87 L 7725.47,1878.87 L 7727.78,1854.82 L 7783.17,1854.82 L 7785.47,1878.87 Z " />
<path stroke="none" fill="#000000" transform="matrix(0.05 0 0 0.05 -28 -17)" d="M 7780.25,1824.34 L 7730.7,1824.34 L 7733,1800.29 L 7777.94,1800.29 L 7780.25,1824.34 Z " />
<path stroke="none" fill="#000000" transform="matrix(0.05 0 0 0.05 -28 -17)" d="M 7775.02,1769.81 L 7735.92,1769.81 L 7738.22,1745.76 L 7772.72,1745.76 L 7775.02,1769.81 Z " />
<path stroke="none" fill="#000000" transform="matrix(0.05 0 0 0.05 -28 -17)" d="M 7769.8,1715.28 L 7741.14,1715.28 L 7743.45,1691.23 L 7767.5,1691.23 L 7769.8,1715.28 Z " />
<text x="0" y="0" stroke="none" fill="#000000" transform="matrix(0.05 0 0 0.05 369.079 90.2325)" font-style="normal" font-weight="normal" font-size="200px" font-family="Arial" >
CH</text>
<text x="0" y="0" stroke="none" fill="#000000" transform="matrix(0.05 0 0 0.05 383.522 92.3516)" font-style="normal" font-weight="normal" font-size="150px" font-family="Arial" >
3</text>
<path stroke="none" fill="#000000" transform="matrix(0.05 0 0 0.05 -28 -17)" d="M 7924.66,2012.83 L 7912.63,2033.65 L 7755.47,1942.92 L 7755.47,1915.15 L 7924.66,2012.83 Z " />
<text x="0" y="0" stroke="none" fill="#000000" transform="matrix(0.05 0 0 0.05 331.854 90.2325)" font-style="normal" font-weight="normal" font-size="200px" font-family="Arial" >
H</text>
<text x="0" y="0" stroke="none" fill="#000000" transform="matrix(0.05 0 0 0.05 339.075 92.3516)" font-style="normal" font-weight="normal" font-size="150px" font-family="Arial" >
3</text>
<text x="0" y="0" stroke="none" fill="#000000" transform="matrix(0.05 0 0 0.05 343.247 90.2325)" font-style="normal" font-weight="normal" font-size="200px" font-family="Arial" >
C</text>
<path stroke="none" fill="#000000" transform="matrix(0.05 0 0 0.05 -28 -17)" d="M 7601.31,2031.92 L 7589.28,2011.1 L 7755.47,1915.15 L 7755.47,1942.92 L 7601.31,2031.92 Z " />
<text x="0" y="0" stroke="none" fill="#000000" transform="matrix(0.05 0 0 0.05 381.29 68.6348)" font-style="normal" font-weight="normal" font-size="200px" font-family="Arial" >
OH</text>
<path stroke="none" fill="#000000" transform="matrix(0.05 0 0 0.05 -28 -17)" d="M 8169.95,1578.51 L 8157.92,1599.33 L 8004.86,1510.96 L 8004.86,1497.08 L 8028.91,1497.08 L 8169.95,1578.51 Z " />
<text x="0" y="0" stroke="none" fill="#000000" transform="matrix(0.05 0 0 0.05 356.61 25.4395)" font-style="normal" font-weight="normal" font-size="200px" font-family="Arial" >
CH</text>
<text x="0" y="0" stroke="none" fill="#000000" transform="matrix(0.05 0 0 0.05 371.053 27.5586)" font-style="normal" font-weight="normal" font-size="150px" font-family="Arial" >
3</text>
<path stroke="none" fill="#000000" transform="matrix(0.05 0 0 0.05 -28 -17)" d="M 7725.47,884.387 L 7785.47,884.387 L 7768.15,1058.56 L 7755.47,1065.13 L 7742.79,1058.56 L 7725.47,884.387 Z " />
<path stroke="none" fill="#000000" transform="matrix(0.05 0 0 0.05 -28 -17)" d="M 7518.11,4844.6 L 7494.06,4858.49 L 7494.06,4556.64 L 7518.11,4570.52 L 7518.11,4844.6 Z " />
<path stroke="none" fill="#000000" transform="matrix(0.05 0 0 0.05 -28 -17)" d="M 7755.47,4981.65 L 7755.47,5009.41 L 7494.06,4858.49 L 7518.11,4844.6 L 7755.47,4981.65 Z " />
<path stroke="none" fill="#000000" transform="matrix(0.05 0 0 0.05 -28 -17)" d="M 7992.84,4844.6 L 8004.86,4851.55 L 8004.22,4865.8 L 7755.47,5009.41 L 7755.47,4981.65 L 7992.84,4844.6 Z " />
<path stroke="none" fill="#000000" transform="matrix(0.05 0 0 0.05 -28 -17)" d="M 7992.84,4570.52 L 8016.88,4556.64 L 8016.88,4843.86 L 8004.86,4851.55 L 7992.84,4844.6 L 7992.84,4570.52 Z " />
<path stroke="none" fill="#000000" transform="matrix(0.05 0 0 0.05 -28 -17)" d="M 7755.47,4433.48 L 7755.47,4419.59 L 7768.15,4413.03 L 8016.88,4556.64 L 7992.84,4570.52 L 7755.47,4433.48 Z " />
<path stroke="none" fill="#000000" transform="matrix(0.05 0 0 0.05 -28 -17)" d="M 7518.11,4570.52 L 7494.06,4556.64 L 7742.79,4413.03 L 7755.47,4419.59 L 7755.47,4433.48 L 7518.11,4570.52 Z " />
<path stroke="none" fill="#000000" transform="matrix(0.05 0 0 0.05 -28 -17)" d="M 7785.47,5233.33 L 7725.47,5233.33 L 7727.78,5209.28 L 7783.17,5209.28 L 7785.47,5233.33 Z " />
<path stroke="none" fill="#000000" transform="matrix(0.05 0 0 0.05 -28 -17)" d="M 7780.25,5178.8 L 7730.7,5178.8 L 7733,5154.75 L 7777.94,5154.75 L 7780.25,5178.8 Z " />
<path stroke="none" fill="#000000" transform="matrix(0.05 0 0 0.05 -28 -17)" d="M 7775.02,5124.27 L 7735.92,5124.27 L 7738.22,5100.23 L 7772.72,5100.23 L 7775.02,5124.27 Z " />
<path stroke="none" fill="#000000" transform="matrix(0.05 0 0 0.05 -28 -17)" d="M 7769.8,5069.75 L 7741.14,5069.75 L 7743.45,5045.7 L 7767.5,5045.7 L 7769.8,5069.75 Z " />
<text x="0" y="0" stroke="none" fill="#000000" transform="matrix(0.05 0 0 0.05 369.079 257.956)" font-style="normal" font-weight="normal" font-size="200px" font-family="Arial" >
CH</text>
<text x="0" y="0" stroke="none" fill="#000000" transform="matrix(0.05 0 0 0.05 383.522 260.075)" font-style="normal" font-weight="normal" font-size="150px" font-family="Arial" >
3</text>
<path stroke="none" fill="#000000" transform="matrix(0.05 0 0 0.05 -28 -17)" d="M 7924.66,5367.29 L 7912.63,5388.12 L 7767.5,5304.33 L 7755.47,5283.5 L 7755.47,5269.62 L 7924.66,5367.29 Z " />
<text x="0" y="0" stroke="none" fill="#000000" transform="matrix(0.05 0 0 0.05 331.854 257.956)" font-style="normal" font-weight="normal" font-size="200px" font-family="Arial" >
H</text>
<text x="0" y="0" stroke="none" fill="#000000" transform="matrix(0.05 0 0 0.05 339.075 260.075)" font-style="normal" font-weight="normal" font-size="150px" font-family="Arial" >
3</text>
<text x="0" y="0" stroke="none" fill="#000000" transform="matrix(0.05 0 0 0.05 343.247 257.956)" font-style="normal" font-weight="normal" font-size="200px" font-family="Arial" >
C</text>
<path stroke="none" fill="#000000" transform="matrix(0.05 0 0 0.05 -28 -17)" d="M 7601.31,5386.39 L 7589.28,5365.56 L 7755.47,5269.62 L 7755.47,5283.5 L 7743.45,5304.33 L 7601.31,5386.39 Z " />
<text x="0" y="0" stroke="none" fill="#000000" transform="matrix(0.05 0 0 0.05 381.29 236.358)" font-style="normal" font-weight="normal" font-size="200px" font-family="Arial" >
OH</text>
<path stroke="none" fill="#000000" transform="matrix(0.05 0 0 0.05 -28 -17)" d="M 8178.93,4917.41 L 8148.93,4969.37 L 8004.22,4865.8 L 8004.86,4851.55 L 8016.88,4843.86 L 8178.93,4917.41 Z " />
<text x="0" y="0" stroke="none" fill="#000000" transform="matrix(0.05 0 0 0.05 356.61 193.163)" font-style="normal" font-weight="normal" font-size="200px" font-family="Arial" >
CH</text>
<text x="0" y="0" stroke="none" fill="#000000" transform="matrix(0.05 0 0 0.05 371.053 195.282)" font-style="normal" font-weight="normal" font-size="150px" font-family="Arial" >
3</text>
<path stroke="none" fill="#000000" transform="matrix(0.05 0 0 0.05 -28 -17)" d="M 7725.47,4238.85 L 7785.47,4238.85 L 7768.15,4413.03 L 7755.47,4419.59 L 7742.79,4413.03 L 7725.47,4238.85 Z " />
<path stroke="none" fill="#ff0000" transform="matrix(0.05 0 0 0.05 -28 -17)" d="M 4902.47,1440.55 A 22.9333,22.9333 0 1 0 4948.34,1440.55A 22.9333,22.9333 0 1 0 4902.47,1440.55Z " />
<path stroke="none" fill="#0000ff" transform="matrix(0.05 0 0 0.05 -28 -17)" d="M 4582.47,5466.09 A 22.9333,22.9333 0 1 0 4628.34,5466.09A 22.9333,22.9333 0 1 0 4582.47,5466.09Z " />
<text x="0" y="0" stroke="none" fill="#0000ff" transform="matrix(0.05 0 0 0.05 357.32 265.152)" font-style="normal" font-weight="bold" font-size="200px" font-family="Arial" >
FG</text>
<path stroke="none" fill="#0000ff" transform="matrix(0.05 0 0 0.05 -28 -17)" d="M 7767.5,5468.63 L 7743.45,5468.63 L 7743.45,5304.33 L 7755.47,5283.5 L 7767.5,5304.33 L 7767.5,5468.63 Z " />
<text x="0" y="0" stroke="none" fill="#ff0000" transform="matrix(0.05 0 0 0.05 382.259 54.2339)" font-style="normal" font-weight="bold" font-size="200px" font-family="Arial" >
FG</text>
<path stroke="none" fill="#ff0000" transform="matrix(0.05 0 0 0.05 -28 -17)" d="M 8154.48,1396.81 L 8166.5,1417.64 L 8028.91,1497.08 L 8004.86,1497.08 L 8016.88,1476.25 L 8154.48,1396.81 Z " />
<text x="0" y="0" stroke="none" fill="#ff0000" transform="matrix(0.05 0 0 0.05 51.0775 133.234)" font-style="normal" font-weight="bold" font-size="200px" font-family="Arial" >
H</text>
<path stroke="none" fill="#ff0000" transform="matrix(0.05 0 0 0.05 -28 -17)" d="M 1521.62,2966.1 L 1551.62,3018.06 L 1528.99,3026.96 L 1502.59,2981.24 L 1521.62,2966.1 Z " />
<path stroke="none" fill="#ff0000" transform="matrix(0.05 0 0 0.05 -28 -17)" d="M 1445.7,3026.52 L 1461.33,3053.59 L 1438.7,3062.49 L 1426.68,3041.67 L 1445.7,3026.52 Z " />
<text x="0" y="0" stroke="none" fill="#0000ff" transform="matrix(0.05 0 0 0.05 26.1387 176.429)" font-style="normal" font-weight="bold" font-size="200px" font-family="Arial" >
H</text>
<path stroke="none" fill="#0000ff" transform="matrix(0.05 0 0 0.05 -28 -17)" d="M 1152.02,3692.39 L 1127.98,3692.39 L 1127.98,3529.86 L 1140,3509.03 L 1152.02,3529.86 L 1152.02,3692.39 Z " />
<path stroke="none" fill="#000000" transform="matrix(0.05 0 0 0.05 -28 -17)" d="M 3776.02,1395.1 L 1120,1395.1 L 1120,1371.1 L 3776.02,1371.1 Z " />
<path stroke="none" fill="#000000" transform="matrix(0.05 0 0 0.05 -28 -17)" d="M 3985.44,1383.1 C 3985.44,1383.1 3744.96,1444.22 3744.96,1444.22 C 3744.96,1444.22 3775.02,1409.84 3775.02,1383.1 C 3775.02,1355.92 3744.96,1320.98 3744.96,1320.98 C 3744.96,1320.98 3985.44,1383.1 3985.44,1383.1 C 3985.44,1383.1 3985.44,1383.1 3985.44,1383.1 " />
<path stroke="#000000" stroke-width="1" fill="none" transform="matrix(0.05 0 0 0.05 -28 -17)" d="M 3985.44,1383.1 C 3985.44,1383.1 3744.96,1444.22 3744.96,1444.22 C 3744.96,1444.22 3775.02,1409.84 3775.02,1383.1 C 3775.02,1355.92 3744.96,1320.98 3744.96,1320.98 C 3744.96,1320.98 3985.44,1383.1 3985.44,1383.1 C 3985.44,1383.1 3985.44,1383.1 3985.44,1383.1 " />
<path stroke="none" fill="#000000" transform="matrix(0.05 0 0 0.05 -28 -17)" d="M 3795.57,4795.1 L 1139.55,4795.1 L 1139.55,4771.1 L 3795.57,4771.1 Z " />
<path stroke="none" fill="#000000" transform="matrix(0.05 0 0 0.05 -28 -17)" d="M 4004.98,4783.1 C 4004.98,4783.1 3764.51,4844.22 3764.51,4844.22 C 3764.51,4844.22 3794.57,4809.84 3794.57,4783.1 C 3794.57,4755.92 3764.51,4720.98 3764.51,4720.98 C 3764.51,4720.98 4004.98,4783.1 4004.98,4783.1 C 4004.98,4783.1 4004.98,4783.1 4004.98,4783.1 " />
<path stroke="#000000" stroke-width="1" fill="none" transform="matrix(0.05 0 0 0.05 -28 -17)" d="M 4004.98,4783.1 C 4004.98,4783.1 3764.51,4844.22 3764.51,4844.22 C 3764.51,4844.22 3794.57,4809.84 3794.57,4783.1 C 3794.57,4755.92 3764.51,4720.98 3764.51,4720.98 C 3764.51,4720.98 4004.98,4783.1 4004.98,4783.1 C 4004.98,4783.1 4004.98,4783.1 4004.98,4783.1 " />
<path stroke="none" fill="#000000" transform="matrix(0.05 0 0 0.05 -28 -17)" d="M 1128,4783.1 L 1128,4043.1 L 1152,4043.1 L 1152,4783.1 Z " />
<path stroke="none" fill="#000000" transform="matrix(0.05 0 0 0.05 -28 -17)" d="M 1108,2123.1 L 1108,1383.1 L 1132,1383.1 L 1132,2123.1 Z " />
<path stroke="#000000" stroke-width="24" fill="none" transform="matrix(0.05 0 0 0.05 -28 -17)" d="M 2344.64,963.801 C 2344.64,1192.48 2540.09,1378.1 2780.88,1378.1 C 2950.83,1378.1 3114.61,1275.63 3181.7,1127.33 " />
<path stroke="none" fill="#000000" transform="matrix(0.05 0 0 0.05 -28 -17)" d="M 3217.12,963.801 C 3217.12,963.801 3224.36,1161.82 3224.36,1161.82 C 3224.36,1161.82 3202.45,1132.17 3181.7,1127.33 C 3160.94,1122.5 3128.91,1139.57 3128.91,1139.57 C 3128.91,1139.57 3217.12,963.801 3217.12,963.801 C 3217.12,963.801 3217.12,963.801 3217.12,963.801 " />
<path stroke="#000000" stroke-width="1" fill="none" transform="matrix(0.05 0 0 0.05 -28 -17)" d="M 3217.12,963.801 C 3217.12,963.801 3224.36,1161.82 3224.36,1161.82 C 3224.36,1161.82 3202.45,1132.17 3181.7,1127.33 C 3160.94,1122.5 3128.91,1139.57 3128.91,1139.57 C 3128.91,1139.57 3217.12,963.801 3217.12,963.801 C 3217.12,963.801 3217.12,963.801 3217.12,963.801 " />
<text x="0" y="0" stroke="none" fill="#ff0000" transform="matrix(0.05 0 0 0.05 78.5068 23.8613)" font-style="normal" font-weight="bold" font-size="200px" font-family="Helvetica" >
Cat1</text>
<text x="0" y="0" stroke="none" fill="#666666" transform="matrix(0.05 0 0 0.05 164.684 129.953)" font-style="normal" font-weight="normal" font-size="200px" font-family="Helvetica" >
Different </text>
<text x="0" y="0" stroke="none" fill="#666666" transform="matrix(0.05 0 0 0.05 205.08 129.953)" font-style="normal" font-weight="normal" font-size="200px" font-family="Helvetica" >
radicals </text>
<text x="0" y="0" stroke="none" fill="#666666" transform="matrix(0.05 0 0 0.05 164.684 140.511)" font-style="normal" font-weight="normal" font-size="200px" font-family="Helvetica" >
formed </text>
<text x="0" y="0" stroke="none" fill="#666666" transform="matrix(0.05 0 0 0.05 198.586 140.511)" font-style="normal" font-weight="normal" font-size="200px" font-family="Helvetica" >
by </text>
<text x="0" y="0" stroke="none" fill="#666666" transform="matrix(0.05 0 0 0.05 211.925 140.511)" font-style="normal" font-weight="normal" font-size="200px" font-family="Helvetica" >
different </text>
<text x="0" y="0" stroke="none" fill="#666666" transform="matrix(0.05 0 0 0.05 164.684 151.07)" font-style="normal" font-weight="normal" font-size="200px" font-family="Helvetica" >
catalysts…</text>
<text x="0" y="0" stroke="none" fill="#666666" transform="matrix(0.05 0 0 0.05 303.976 130.856)" font-style="normal" font-weight="normal" font-size="200px" font-family="Helvetica" >
…lead </text>
<text x="0" y="0" stroke="none" fill="#666666" transform="matrix(0.05 0 0 0.05 335.661 130.856)" font-style="normal" font-weight="normal" font-size="200px" font-family="Helvetica" >
to </text>
<text x="0" y="0" stroke="none" fill="#666666" transform="matrix(0.05 0 0 0.05 346.779 130.856)" font-style="normal" font-weight="normal" font-size="200px" font-family="Helvetica" >
different </text>
<text x="0" y="0" stroke="none" fill="#666666" transform="matrix(0.05 0 0 0.05 385.515 130.856)" font-style="normal" font-weight="normal" font-size="200px" font-family="Helvetica" >
products </text>
<text x="0" y="0" stroke="none" fill="#666666" transform="matrix(0.05 0 0 0.05 303.976 141.515)" font-style="normal" font-weight="normal" font-size="200px" font-family="Helvetica" >
depending </text>
<text x="0" y="0" stroke="none" fill="#666666" transform="matrix(0.05 0 0 0.05 353.469 141.515)" font-style="normal" font-weight="normal" font-size="200px" font-family="Helvetica" >
on </text>
<text x="0" y="0" stroke="none" fill="#666666" transform="matrix(0.05 0 0 0.05 367.37 141.515)" font-style="normal" font-weight="normal" font-size="200px" font-family="Helvetica" >
where </text>
<text x="0" y="0" stroke="none" fill="#666666" transform="matrix(0.05 0 0 0.05 397.385 141.515)" font-style="normal" font-weight="normal" font-size="200px" font-family="Helvetica" >
the </text>
<text x="0" y="0" stroke="none" fill="#666666" transform="matrix(0.05 0 0 0.05 303.976 152.173)" font-style="normal" font-weight="normal" font-size="200px" font-family="Helvetica" >
radical </text>
<text x="0" y="0" stroke="none" fill="#666666" transform="matrix(0.05 0 0 0.05 336.213 152.173)" font-style="normal" font-weight="normal" font-size="200px" font-family="Helvetica" >
was </text>
<text x="0" y="0" stroke="none" fill="#666666" transform="matrix(0.05 0 0 0.05 356.774 152.173)" font-style="normal" font-weight="normal" font-size="200px" font-family="Helvetica" >
located!</text>
<path stroke="none" fill="#ff0000" transform="matrix(0.05 0 0 0.05 -28 -17)" d="M 2561.15,745.887 A 22.9333,22.9333 0 1 0 2607.02,745.887A 22.9333,22.9333 0 1 0 2561.15,745.887Z " />
<text x="0" y="0" stroke="none" fill="#ff0000" transform="matrix(0.05 0 0 0.05 115.897 23.8124)" font-style="normal" font-weight="bold" font-size="200px" font-family="Arial" >
Cat1</text>
<text x="0" y="0" stroke="none" fill="#ff0000" transform="matrix(0.05 0 0 0.05 147.537 23.8124)" font-style="normal" font-weight="bold" font-size="200px" font-family="Arial" >
H</text>
<path stroke="none" fill="#ff0000" transform="matrix(0.05 0 0 0.05 -28 -17)" d="M 3477.37,732.643 L 3477.37,756.691 L 3335.62,756.691 L 3335.62,732.643 L 3477.37,732.643 Z " />
<path stroke="#000000" stroke-width="24" fill="none" transform="matrix(0.05 0 0 0.05 -28 -17)" d="M 3182.25,5036.25 C 3088.17,4825.75 2831.89,4727.42 2610.24,4816.77 C 2453.2,4880.07 2344.45,5036.12 2344.45,5198.13 " />
<path stroke="none" fill="#000000" transform="matrix(0.05 0 0 0.05 -28 -17)" d="M 3216.93,5198.13 C 3216.93,5198.13 3130.05,5024.04 3130.05,5024.04 C 3130.05,5024.04 3161.92,5040.95 3182.25,5036.25 C 3202.58,5031.56 3224.55,5002.22 3224.55,5002.22 C 3224.55,5002.22 3216.93,5198.13 3216.93,5198.13 C 3216.93,5198.13 3216.93,5198.13 3216.93,5198.13 " />
<path stroke="#000000" stroke-width="1" fill="none" transform="matrix(0.05 0 0 0.05 -28 -17)" d="M 3216.93,5198.13 C 3216.93,5198.13 3130.05,5024.04 3130.05,5024.04 C 3130.05,5024.04 3161.92,5040.95 3182.25,5036.25 C 3202.58,5031.56 3224.55,5002.22 3224.55,5002.22 C 3224.55,5002.22 3216.93,5198.13 3216.93,5198.13 C 3216.93,5198.13 3216.93,5198.13 3216.93,5198.13 " />
<text x="0" y="0" stroke="none" fill="#0000ff" transform="matrix(0.05 0 0 0.05 77.8184 256.361)" font-style="normal" font-weight="bold" font-size="200px" font-family="Helvetica" >
Cat2</text>
<path stroke="none" fill="#0000ff" transform="matrix(0.05 0 0 0.05 -28 -17)" d="M 2561.15,5395.89 A 22.9333,22.9333 0 1 0 2607.02,5395.89A 22.9333,22.9333 0 1 0 2561.15,5395.89Z " />
<text x="0" y="0" stroke="none" fill="#0000ff" transform="matrix(0.05 0 0 0.05 116.73 256.312)" font-style="normal" font-weight="bold" font-size="200px" font-family="Arial" >
Cat2</text>
<text x="0" y="0" stroke="none" fill="#0000ff" transform="matrix(0.05 0 0 0.05 147.537 256.312)" font-style="normal" font-weight="bold" font-size="200px" font-family="Arial" >
H</text>
<path stroke="none" fill="#0000ff" transform="matrix(0.05 0 0 0.05 -28 -17)" d="M 3477.37,5382.64 L 3477.37,5406.69 L 3357.62,5406.69 L 3357.62,5382.64 L 3477.37,5382.64 Z " />
<text x="0" y="0" stroke="none" fill="#666666" transform="matrix(0.05 0 0 0.05 81.25 70.448)" font-style="normal" font-weight="normal" font-size="200px" font-family="Helvetica" >
HAT </text>
<text x="0" y="0" stroke="none" fill="#666666" transform="matrix(0.05 0 0 0.05 103.115 70.448)" font-style="normal" font-weight="normal" font-size="200px" font-family="Helvetica" >
reaction</text>
<text x="0" y="0" stroke="none" fill="#666666" transform="matrix(0.05 0 0 0.05 81.25 209.948)" font-style="normal" font-weight="normal" font-size="200px" font-family="Helvetica" >
HAT </text>
<text x="0" y="0" stroke="none" fill="#666666" transform="matrix(0.05 0 0 0.05 103.115 209.948)" font-style="normal" font-weight="normal" font-size="200px" font-family="Helvetica" >
reaction</text>
<text x="0" y="0" stroke="none" fill="#666666" transform="matrix(0.05 0 0 0.05 263.572 69.552)" font-style="normal" font-weight="normal" font-size="200px" font-family="Helvetica" >
further </text>
<text x="0" y="0" stroke="none" fill="#666666" transform="matrix(0.05 0 0 0.05 295.251 69.552)" font-style="normal" font-weight="normal" font-size="200px" font-family="Helvetica" >
steps</text>
<text x="0" y="0" stroke="none" fill="#666666" transform="matrix(0.05 0 0 0.05 263.572 209.052)" font-style="normal" font-weight="normal" font-size="200px" font-family="Helvetica" >
further </text>
<text x="0" y="0" stroke="none" fill="#666666" transform="matrix(0.05 0 0 0.05 295.251 209.052)" font-style="normal" font-weight="normal" font-size="200px" font-family="Helvetica" >
steps</text>
<text x="0" y="0" stroke="none" fill="#666666" transform="matrix(0.05 0 0 0.05 411.5 52)" font-style="normal" font-weight="normal" font-size="200px" font-family="Helvetica" >
(</text>
<text x="0" y="0" stroke="none" fill="#666666" transform="matrix(0.05 0 0 0.05 414.83 52)" font-style="normal" font-weight="bold" font-size="200px" font-family="Helvetica" >
FG</text>
<text x="0" y="0" stroke="none" fill="#666666" transform="matrix(0.05 0 0 0.05 428.717 52)" font-style="normal" font-weight="normal" font-size="200px" font-family="Helvetica" >
 </text>
<text x="0" y="0" stroke="none" fill="#666666" transform="matrix(0.05 0 0 0.05 431.495 52)" font-style="normal" font-weight="normal" font-size="200px" font-family="Helvetica" >
= </text>
<text x="0" y="0" stroke="none" fill="#666666" transform="matrix(0.05 0 0 0.05 440.113 52)" font-style="normal" font-weight="normal" font-size="200px" font-family="Helvetica" >
some </text>
<text x="0" y="0" stroke="none" fill="#666666" transform="matrix(0.05 0 0 0.05 467.345 52)" font-style="normal" font-weight="normal" font-size="200px" font-family="Helvetica" >
new </text>
<text x="0" y="0" stroke="none" fill="#666666" transform="matrix(0.05 0 0 0.05 411.5 62.6583)" font-style="normal" font-weight="normal" font-size="200px" font-family="Helvetica" >
functional </text>
<text x="0" y="0" stroke="none" fill="#666666" transform="matrix(0.05 0 0 0.05 457.086 62.6583)" font-style="normal" font-weight="normal" font-size="200px" font-family="Helvetica" >
group)</text>
<text x="0" y="0" stroke="none" fill="#666666" transform="matrix(0.05 0 0 0.05 45.6958 9.43015)" font-style="normal" font-weight="normal" font-size="200px" font-family="Helvetica" >
active</text>
<text x="0" y="0" stroke="none" fill="#666666" transform="matrix(0.05 0 0 0.05 19.5825 19.9885)" font-style="normal" font-weight="normal" font-size="200px" font-family="Helvetica" >
radical </text>
<text x="0" y="0" stroke="none" fill="#666666" transform="matrix(0.05 0 0 0.05 51.8188 19.9885)" font-style="normal" font-weight="normal" font-size="200px" font-family="Helvetica" >
form</text>
<text x="0" y="0" stroke="none" fill="#666666" transform="matrix(0.05 0 0 0.05 41.6138 30.5468)" font-style="normal" font-weight="normal" font-size="200px" font-family="Helvetica" >
of </text>
<text x="0" y="0" stroke="none" fill="#666666" transform="matrix(0.05 0 0 0.05 52.7319 30.5468)" font-style="normal" font-weight="normal" font-size="200px" font-family="Helvetica" >
HAT </text>
<text x="0" y="0" stroke="none" fill="#666666" transform="matrix(0.05 0 0 0.05 29.5776 41.1051)" font-style="normal" font-weight="normal" font-size="200px" font-family="Helvetica" >
catalyst </text>
<text x="0" y="0" stroke="none" fill="#666666" transform="matrix(0.05 0 0 0.05 66.2573 41.1051)" font-style="normal" font-weight="normal" font-size="200px" font-family="Helvetica" >
1</text>
<text x="0" y="0" stroke="none" fill="#666666" transform="matrix(0.05 0 0 0.05 45.6958 240.43)" font-style="normal" font-weight="normal" font-size="200px" font-family="Helvetica" >
active</text>
<text x="0" y="0" stroke="none" fill="#666666" transform="matrix(0.05 0 0 0.05 19.5825 250.988)" font-style="normal" font-weight="normal" font-size="200px" font-family="Helvetica" >
radical </text>
<text x="0" y="0" stroke="none" fill="#666666" transform="matrix(0.05 0 0 0.05 51.8188 250.988)" font-style="normal" font-weight="normal" font-size="200px" font-family="Helvetica" >
form</text>
<text x="0" y="0" stroke="none" fill="#666666" transform="matrix(0.05 0 0 0.05 41.6138 261.547)" font-style="normal" font-weight="normal" font-size="200px" font-family="Helvetica" >
of </text>
<text x="0" y="0" stroke="none" fill="#666666" transform="matrix(0.05 0 0 0.05 52.7319 261.547)" font-style="normal" font-weight="normal" font-size="200px" font-family="Helvetica" >
HAT </text>
<text x="0" y="0" stroke="none" fill="#666666" transform="matrix(0.05 0 0 0.05 29.5776 272.105)" font-style="normal" font-weight="normal" font-size="200px" font-family="Helvetica" >
catalyst </text>
<text x="0" y="0" stroke="none" fill="#666666" transform="matrix(0.05 0 0 0.05 66.2573 272.105)" font-style="normal" font-weight="normal" font-size="200px" font-family="Helvetica" >
2</text>
</svg>
